<svg width="396" height="396" viewBox="0 0 396 396" fill="none" xmlns="http://www.w3.org/2000/svg">
<g filter="url(#filter0_bd_1_3625)">
<circle cx="197.682" cy="194.272" r="77.5" transform="rotate(-20.184 197.682 194.272)" fill="white" fill-opacity="0.28" shape-rendering="crispEdges"/>
</g>
<path d="M155.409 243.254L156.923 241.559L154.646 239.525L155.606 238.449L157.884 240.483L159.485 238.69L156.917 236.397L157.903 235.292L161.828 238.797L155.779 245.571L151.854 242.066L152.841 240.961L155.409 243.254Z" fill="white"/>
<path d="M151.777 228.075L150.54 231.486L154.047 231.049L155.292 232.681L149.923 233.183L148.107 238.214L146.838 236.551L148.065 233.147L144.576 233.587L143.331 231.955L148.682 231.45L150.508 226.412L151.777 228.075Z" fill="white"/>
<path d="M139.873 219.633C140.309 219.423 140.77 219.33 141.254 219.357C141.734 219.375 142.198 219.55 142.647 219.882C143.091 220.206 143.475 220.704 143.799 221.375L144.459 222.744L147.595 221.231L148.385 222.87L140.217 226.809L138.767 223.801C138.462 223.169 138.312 222.578 138.316 222.028C138.32 221.478 138.46 221.002 138.737 220.599C139.01 220.189 139.389 219.867 139.873 219.633ZM142.51 222.083C142.292 221.63 142.029 221.344 141.721 221.223C141.405 221.106 141.06 221.138 140.685 221.318C139.889 221.702 139.706 222.339 140.135 223.228L140.761 224.527L143.137 223.382L142.51 222.083Z" fill="white"/>
<path d="M142.266 211.684L141.451 208.81L142.839 208.416L144.15 213.041L135.425 215.514L134.929 213.765L142.266 211.684Z" fill="white"/>
<path d="M141.774 200.726C141.847 201.572 141.716 202.365 141.381 203.107C141.045 203.849 140.545 204.458 139.882 204.932C139.211 205.408 138.43 205.684 137.542 205.761C136.661 205.837 135.854 205.698 135.119 205.345C134.376 204.992 133.775 204.478 133.317 203.805C132.859 203.132 132.593 202.373 132.52 201.527C132.446 200.673 132.577 199.879 132.913 199.146C133.249 198.404 133.753 197.799 134.426 197.332C135.089 196.858 135.86 196.582 136.741 196.506C137.629 196.429 138.445 196.567 139.189 196.92C139.923 197.265 140.519 197.774 140.977 198.448C141.435 199.121 141.701 199.88 141.774 200.726ZM140.156 200.866C140.109 200.322 139.947 199.854 139.67 199.461C139.383 199.068 139.002 198.775 138.524 198.582C138.047 198.388 137.506 198.318 136.902 198.37C136.298 198.422 135.782 198.584 135.353 198.856C134.916 199.129 134.594 199.483 134.389 199.918C134.183 200.353 134.104 200.842 134.151 201.386C134.198 201.929 134.36 202.402 134.638 202.804C134.916 203.197 135.293 203.491 135.771 203.684C136.24 203.878 136.776 203.949 137.38 203.897C137.984 203.845 138.505 203.682 138.942 203.41C139.379 203.137 139.705 202.783 139.919 202.347C140.124 201.903 140.203 201.41 140.156 200.866Z" fill="white"/>
<path d="M142.073 187.733L138.318 189.279L138.211 190.129L141.718 190.569L141.491 192.374L132.494 191.246L132.917 187.868C133.004 187.172 133.203 186.595 133.514 186.136C133.816 185.677 134.192 185.353 134.644 185.165C135.087 184.967 135.567 184.901 136.083 184.966C136.676 185.04 137.191 185.279 137.629 185.683C138.059 186.086 138.322 186.639 138.417 187.34L142.335 185.645L142.073 187.733ZM136.858 189.96L137.047 188.452C137.108 187.962 137.038 187.582 136.836 187.312C136.626 187.041 136.31 186.88 135.889 186.827C135.476 186.775 135.143 186.856 134.89 187.068C134.627 187.28 134.466 187.63 134.404 188.12L134.215 189.629L136.858 189.96Z" fill="white"/>
<path d="M136.554 177.793L138.722 178.478L139.642 175.567L141.017 176.002L140.097 178.913L142.388 179.637L143.426 176.354L144.838 176.801L143.252 181.818L134.593 179.08L136.179 174.064L137.591 174.51L136.554 177.793Z" fill="white"/>
<path d="M150.606 162.49L148.562 165.468L149.648 166.939L148.567 168.513L142.926 160.685L144.125 158.939L153.457 161.391L152.369 162.976L150.606 162.49ZM149.127 162.074L145.257 161.008L147.642 164.237L149.127 162.074Z" fill="white"/>
<path d="M161.777 153.049L160.446 154.288L153.191 152.539L157.432 157.094L156.1 158.334L149.912 151.687L151.244 150.448L158.507 152.205L154.258 147.641L155.589 146.402L161.777 153.049Z" fill="white"/>
<path d="M163.409 140.993C164.231 140.511 165.046 140.249 165.854 140.206C166.67 140.16 167.422 140.337 168.108 140.738C168.798 141.126 169.373 141.713 169.833 142.498C170.293 143.282 170.524 144.07 170.526 144.862C170.532 145.642 170.315 146.377 169.875 147.066C169.443 147.751 168.817 148.334 167.995 148.816L165.26 150.419L160.674 142.596L163.409 140.993ZM167.157 147.515C167.979 147.033 168.482 146.437 168.668 145.726C168.853 145.014 168.708 144.252 168.23 143.437C167.753 142.623 167.156 142.119 166.441 141.926C165.721 141.726 164.95 141.866 164.128 142.348L163.018 142.998L166.047 148.165L167.157 147.515Z" fill="white"/>
<path d="M181.239 135.126L181.768 137.338L184.737 136.627L185.073 138.03L182.103 138.74L182.662 141.078L186.011 140.277L186.355 141.717L181.238 142.941L179.126 134.109L184.243 132.885L184.588 134.326L181.239 135.126Z" fill="white"/>
<path d="M198.102 140.716L196.284 140.79L191.917 134.739L192.169 140.957L190.352 141.031L189.983 131.957L191.801 131.883L196.169 137.947L195.916 131.716L197.733 131.642L198.102 140.716Z" fill="white"/>
<path d="M210.005 133.093L209.768 134.542L207.384 134.153L206.158 141.653L204.363 141.36L205.588 133.859L203.204 133.469L203.44 132.021L210.005 133.093Z" fill="white"/>
<path d="M216.726 136.534L215.969 138.678L218.848 139.694L218.368 141.054L215.489 140.038L214.69 142.304L217.936 143.45L217.443 144.847L212.481 143.096L215.504 134.532L220.465 136.283L219.973 137.68L216.726 136.534Z" fill="white"/>
<path d="M225.208 148.809L225.231 144.748L224.487 144.322L222.729 147.387L221.151 146.482L225.663 138.616L228.616 140.31C229.224 140.659 229.68 141.065 229.984 141.528C230.291 141.984 230.445 142.457 230.444 142.946C230.455 143.431 230.331 143.899 230.072 144.35C229.775 144.869 229.355 145.252 228.814 145.5C228.276 145.741 227.665 145.77 226.981 145.588L227.034 149.856L225.208 148.809ZM225.166 143.139L226.484 143.895C226.913 144.14 227.29 144.222 227.617 144.14C227.948 144.05 228.219 143.821 228.43 143.453C228.637 143.093 228.691 142.754 228.593 142.438C228.499 142.115 228.238 141.83 227.81 141.585L226.491 140.828L225.166 143.139Z" fill="white"/>
<path d="M245.307 154.023L244.242 155.033L242.579 153.28L237.064 158.509L235.812 157.189L241.327 151.96L239.665 150.207L240.73 149.196L245.307 154.023Z" fill="white"/>
<path d="M252.966 165.035L245.264 169.823L244.304 168.278L247.581 166.241L245.53 162.942L242.253 164.979L241.293 163.435L248.994 158.647L249.955 160.192L246.788 162.16L248.839 165.459L252.006 163.491L252.966 165.035Z" fill="white"/>
<path d="M254.973 172.989L252.847 173.794L253.929 176.65L252.58 177.16L251.499 174.305L249.251 175.157L250.47 178.376L249.085 178.901L247.222 173.98L255.714 170.764L257.578 175.684L256.193 176.209L254.973 172.989Z" fill="white"/>
<path d="M260.935 197.726L251.876 198.139L251.794 196.322L257.686 196.054L251.683 193.895L251.621 192.519L257.402 189.811L251.509 190.079L251.427 188.262L260.486 187.85L260.58 189.913L253.975 193.101L260.842 195.676L260.935 197.726Z" fill="white"/>
<path d="M258.551 205.762L256.31 205.377L255.795 208.387L254.373 208.143L254.889 205.134L252.52 204.728L251.938 208.121L250.479 207.871L251.368 202.685L260.318 204.219L259.429 209.405L257.97 209.155L258.551 205.762Z" fill="white"/>
<path d="M255.909 220.685L254.529 220.186L255.35 217.914L248.203 215.329L248.822 213.618L255.969 216.203L256.791 213.931L258.171 214.43L255.909 220.685Z" fill="white"/>
<path d="M244.265 226.961L246.152 223.881L244.991 222.469L245.988 220.841L252.029 228.365L250.923 230.171L241.475 228.208L242.48 226.568L244.265 226.961ZM245.764 227.3L249.684 228.163L247.135 225.062L245.764 227.3Z" fill="white"/>
<path d="M239.884 243.544L235.645 234.865L237.174 233.271L246.02 237.151L244.67 238.557L237.741 235.364L241.225 242.147L239.884 243.544Z" fill="white"/>
<path d="M233.481 246.682L232.168 244.826L229.676 246.59L228.842 245.413L231.334 243.649L229.946 241.687L227.136 243.676L226.28 242.467L230.575 239.427L235.821 246.84L231.527 249.88L230.671 248.671L233.481 246.682Z" fill="white"/>
<path d="M218.562 246.52L221.865 248.884L222.642 248.523L221.155 245.317L222.805 244.552L226.622 252.777L223.534 254.21C222.898 254.506 222.303 254.643 221.749 254.623C221.2 254.611 220.725 254.464 220.327 254.181C219.924 253.909 219.613 253.538 219.394 253.067C219.143 252.524 219.072 251.96 219.182 251.375C219.296 250.797 219.625 250.281 220.169 249.828L216.653 247.406L218.562 246.52ZM223.217 249.76L221.838 250.4C221.39 250.608 221.105 250.869 220.984 251.183C220.866 251.505 220.896 251.859 221.075 252.244C221.25 252.621 221.495 252.86 221.81 252.963C222.128 253.073 222.511 253.024 222.959 252.816L224.338 252.176L223.217 249.76Z" fill="white"/>
<path d="M209.871 249.351C210.485 249.201 211.066 249.17 211.614 249.259C212.154 249.349 212.615 249.557 212.998 249.883C213.381 250.208 213.642 250.639 213.783 251.175L211.89 251.639C211.776 251.283 211.58 251.028 211.301 250.874C211.014 250.721 210.669 250.694 210.265 250.793C209.853 250.894 209.552 251.07 209.364 251.321C209.178 251.581 209.124 251.871 209.203 252.19C209.267 252.451 209.399 252.646 209.6 252.775C209.801 252.904 210.035 252.985 210.302 253.018C210.562 253.061 210.917 253.09 211.366 253.105C211.98 253.133 212.487 253.183 212.888 253.254C213.282 253.335 213.65 253.508 213.991 253.772C214.326 254.047 214.562 254.462 214.698 255.017C214.825 255.539 214.806 256.025 214.64 256.476C214.474 256.927 214.181 257.311 213.759 257.628C213.34 257.954 212.827 258.191 212.221 258.34C211.313 258.562 210.522 258.52 209.849 258.212C209.17 257.915 208.704 257.378 208.451 256.602L210.394 256.125C210.485 256.424 210.677 256.64 210.968 256.774C211.253 256.918 211.593 256.942 211.989 256.845C212.334 256.76 212.59 256.604 212.757 256.376C212.915 256.15 212.953 255.868 212.871 255.532C212.813 255.296 212.689 255.117 212.498 254.994C212.301 254.882 212.077 254.803 211.825 254.758C211.567 254.723 211.212 254.694 210.76 254.671C210.147 254.643 209.639 254.589 209.236 254.51C208.833 254.43 208.46 254.254 208.117 253.981C207.774 253.709 207.535 253.299 207.401 252.752C207.285 252.281 207.3 251.814 207.445 251.35C207.59 250.887 207.868 250.475 208.28 250.116C208.693 249.765 209.224 249.51 209.871 249.351Z" fill="white"/>
<path d="M201.076 258.512L200.942 256.242L197.894 256.422L197.809 254.982L200.857 254.802L200.716 252.403L197.279 252.606L197.192 251.127L202.444 250.818L202.978 259.883L197.726 260.193L197.639 258.714L201.076 258.512Z" fill="white"/>
<g clip-path="url(#clip0_1_3625)">
<path d="M195.908 187.998C195.659 188.09 195.456 188.276 195.345 188.517C195.234 188.758 195.223 189.033 195.314 189.282L196.694 193.036C196.786 193.285 196.972 193.488 197.213 193.599C197.454 193.71 197.729 193.721 197.978 193.63C198.227 193.538 198.429 193.352 198.541 193.111C198.652 192.87 198.663 192.595 198.571 192.346L197.191 188.592C197.1 188.343 196.913 188.14 196.672 188.029C196.432 187.918 196.157 187.907 195.908 187.998Z" fill="white"/>
<path fill-rule="evenodd" clip-rule="evenodd" d="M189.434 193.575C188.702 191.583 188.791 189.383 189.682 187.457C190.572 185.531 192.191 184.038 194.183 183.306C196.174 182.574 198.375 182.663 200.301 183.553C202.227 184.444 203.72 186.063 204.452 188.054L207.212 195.563C207.944 197.554 207.855 199.755 206.965 201.681C206.074 203.607 204.455 205.1 202.464 205.832C200.472 206.564 198.272 206.475 196.346 205.584C194.42 204.694 192.927 203.075 192.195 201.083L189.434 193.575ZM202.575 188.744L205.335 196.253C205.884 197.746 205.817 199.397 205.149 200.841C204.482 202.286 203.267 203.406 201.774 203.955C200.28 204.504 198.63 204.437 197.185 203.769C195.741 203.101 194.621 201.887 194.072 200.393L191.312 192.885C190.763 191.391 190.829 189.74 191.497 188.296C192.165 186.852 193.379 185.732 194.873 185.183C196.367 184.634 198.017 184.7 199.461 185.368C200.906 186.036 202.026 187.251 202.575 188.744Z" fill="white"/>
</g>
<defs>
<filter id="filter0_bd_1_3625" x="0.160492" y="0.751221" width="395.042" height="395.042" filterUnits="userSpaceOnUse" color-interpolation-filters="sRGB">
<feFlood flood-opacity="0" result="BackgroundImageFix"/>
<feGaussianBlur in="BackgroundImageFix" stdDeviation="24"/>
<feComposite in2="SourceAlpha" operator="in" result="effect1_backgroundBlur_1_3625"/>
<feColorMatrix in="SourceAlpha" type="matrix" values="0 0 0 0 0 0 0 0 0 0 0 0 0 0 0 0 0 0 127 0" result="hardAlpha"/>
<feOffset dy="4"/>
<feGaussianBlur stdDeviation="60"/>
<feComposite in2="hardAlpha" operator="out"/>
<feColorMatrix type="matrix" values="0 0 0 0 0 0 0 0 0 0 0 0 0 0 0 0 0 0 0.25 0"/>
<feBlend mode="normal" in2="effect1_backgroundBlur_1_3625" result="effect2_dropShadow_1_3625"/>
<feBlend mode="normal" in="SourceGraphic" in2="effect2_dropShadow_1_3625" result="shape"/>
</filter>
<clipPath id="clip0_1_3625">
<rect width="24" height="24" fill="white" transform="translate(182.92 187.446) rotate(-20.184)"/>
</clipPath>
</defs>
</svg>
